<svg width="100" height="32" viewBox="0 0 100 32" fill="none" xmlns="http://www.w3.org/2000/svg">
    <g clip-path="url(#clip0_40_11)">
        <path
            d="M15.5576 0C6.96563 0 0 7.1326 0 15.9308C0 24.7294 6.96563 31.8614 15.5576 31.8614C24.1506 31.8614 31.1154 24.7294 31.1154 15.9308C31.1154 7.1332 24.1506 0.0008 15.5574 0.0008L15.5576 0ZM22.6924 22.9768C22.626 23.0882 22.5388 23.1851 22.4358 23.262C22.3328 23.3388 22.216 23.3941 22.0921 23.4247C21.9682 23.4553 21.8396 23.4605 21.7137 23.4402C21.5878 23.4198 21.4671 23.3742 21.3584 23.306C17.7057 21.0212 13.1072 20.5038 7.6918 21.7708C7.44104 21.8292 7.1779 21.7833 6.96021 21.6431C6.74252 21.5029 6.58809 21.2799 6.53086 21.0232C6.50234 20.8961 6.49859 20.7645 6.51983 20.6359C6.54106 20.5073 6.58686 20.3842 6.65461 20.2738C6.72235 20.1633 6.81071 20.0676 6.91462 19.9922C7.01853 19.9168 7.13595 19.8631 7.26016 19.8342C13.1865 18.4476 18.2699 19.0446 22.3709 21.611C22.4796 21.679 22.5742 21.7684 22.6492 21.8739C22.7242 21.9793 22.7782 22.0989 22.808 22.2258C22.8379 22.3527 22.843 22.4843 22.8231 22.6132C22.8032 22.7421 22.7588 22.8657 22.6922 22.977M24.5965 18.6392C24.2451 19.2236 23.4984 19.4082 22.9279 19.0486C18.7463 16.4166 12.3715 15.6542 7.4252 17.1918C7.1173 17.2872 6.78501 17.2537 6.50123 17.0985C6.21746 16.9434 6.00538 16.6793 5.91152 16.3642C5.81871 16.049 5.85172 15.7089 6.00333 15.4186C6.15493 15.1282 6.41276 14.9112 6.72031 14.8152C12.3705 13.0596 19.3945 13.91 24.1969 16.9318C24.7672 17.2914 24.9475 18.0562 24.5963 18.6394L24.5965 18.6392ZM24.7598 14.1222C19.7461 11.0724 11.473 10.792 6.68574 12.28C5.91699 12.5188 5.1041 12.0744 4.87129 11.2872C4.75929 10.909 4.79852 10.5008 4.98036 10.1522C5.1622 9.80367 5.47177 9.54331 5.84102 9.4284C11.3365 7.72 20.4723 8.05 26.2451 11.5594C26.4096 11.6591 26.5534 11.791 26.668 11.9476C26.7827 12.1042 26.866 12.2825 26.9133 12.4722C26.9606 12.6618 26.9709 12.8592 26.9435 13.0529C26.9162 13.2467 26.8518 13.433 26.7541 13.6012C26.3455 14.3092 25.45 14.5426 24.7607 14.1222H24.7598ZM42.327 14.7066C39.6406 14.0506 39.1633 13.5904 39.1633 12.623C39.1633 11.709 40.0029 11.094 41.2531 11.094C42.4645 11.094 43.6647 11.5612 44.9242 12.5226C44.9613 12.5516 45.0096 12.5632 45.0561 12.5556C45.0794 12.5522 45.1019 12.5439 45.1221 12.5313C45.1422 12.5187 45.1596 12.502 45.1732 12.4822L46.4848 10.589C46.5107 10.5515 46.5217 10.5052 46.5155 10.4597C46.5093 10.4142 46.4863 10.3728 46.4514 10.344C44.9522 9.1126 43.2652 8.514 41.2922 8.514C38.3922 8.514 36.3654 10.2962 36.3654 12.8464C36.3654 15.581 38.1135 16.5494 41.1344 17.2968C43.7037 17.903 44.1383 18.4108 44.1383 19.3188C44.1383 20.3252 43.2613 20.951 41.8496 20.951C40.2816 20.951 39.0016 20.409 37.5711 19.1418C37.5354 19.111 37.4896 19.0954 37.443 19.0982C37.4198 19.0998 37.3971 19.1062 37.3763 19.1169C37.3556 19.1277 37.3371 19.1426 37.3221 19.1608L35.8508 20.9528C35.8212 20.9887 35.8065 21.035 35.8096 21.0819C35.8127 21.1287 35.8335 21.1725 35.8676 21.204C37.532 22.726 39.5793 23.5288 41.79 23.5288C44.915 23.5288 46.9344 21.7804 46.9344 19.0734C46.9398 16.7892 45.6043 15.5242 42.3326 14.7092L42.327 14.7066ZM54.0051 11.9938C52.6508 11.9938 51.5398 12.5402 50.6221 13.6598V12.3998C50.6221 12.3002 50.5439 12.2192 50.4475 12.2192H48.0416C47.9951 12.2195 47.9506 12.2386 47.9179 12.2724C47.8851 12.3062 47.8668 12.352 47.867 12.3996V26.4014C47.867 26.5002 47.9451 26.582 48.0416 26.582H50.4475C50.494 26.5816 50.5384 26.5624 50.5712 26.5286C50.6039 26.4947 50.6222 26.449 50.6221 26.4014V21.982C51.5398 23.034 52.6508 23.5496 54.0049 23.5496C56.5225 23.5496 59.0713 21.5656 59.0713 17.7724C59.075 13.9784 56.526 11.9936 54.0068 11.9936L54.0051 11.9938ZM56.2734 17.7724C56.2734 19.703 55.1123 21.0518 53.4477 21.0518C51.8035 21.0518 50.5625 19.6422 50.5625 17.7724C50.5625 15.9024 51.8035 14.493 53.4477 14.493C55.0844 14.493 56.2734 15.8718 56.2734 17.7724ZM65.6014 11.9938C62.3596 11.9938 59.8199 14.5498 59.8199 17.8138C59.8199 21.0424 62.3428 23.5706 65.5623 23.5706C68.8152 23.5706 71.3623 21.0234 71.3623 17.7724C71.3623 14.5324 68.832 11.9944 65.6014 11.9944V11.9938ZM65.6014 21.0708C63.8773 21.0708 62.577 19.6516 62.577 17.7714C62.577 15.8826 63.8328 14.5118 65.5623 14.5118C67.2975 14.5118 68.6053 15.9304 68.6053 17.8126C68.6053 19.7012 67.342 21.0708 65.6014 21.0708ZM78.2844 12.2192H75.6371V9.448C75.6371 9.3486 75.559 9.2676 75.4625 9.2676H73.0566C73.0099 9.26771 72.9651 9.28673 72.932 9.32053C72.899 9.35433 72.8803 9.40015 72.8801 9.448V12.219H71.7246C71.6781 12.2193 71.6336 12.2384 71.6009 12.2722C71.5681 12.306 71.5498 12.3518 71.55 12.3994V14.5162C71.5498 14.5638 71.5681 14.6096 71.6009 14.6434C71.6336 14.6773 71.6781 14.6965 71.7246 14.6968H72.8801V20.1748C72.8801 22.3872 73.9559 23.5096 76.0793 23.5096C76.9412 23.5096 77.6564 23.3268 78.3309 22.935C78.3581 22.9197 78.3808 22.8971 78.3966 22.8696C78.4123 22.8422 78.4204 22.8108 78.4201 22.779V20.7624C78.42 20.7319 78.4122 20.7019 78.3976 20.6753C78.383 20.6487 78.362 20.6263 78.3365 20.6104C78.3112 20.5938 78.2821 20.5843 78.252 20.5829C78.222 20.5815 78.1921 20.5883 78.1654 20.6026C77.7029 20.8406 77.2553 20.9508 76.7535 20.9508C75.9826 20.9508 75.6371 20.5912 75.6371 19.7884V14.698H78.2844C78.3309 14.6977 78.3754 14.6786 78.4082 14.6447C78.4409 14.6108 78.4592 14.5651 78.459 14.5174V12.4006C78.4598 12.377 78.4559 12.3535 78.4475 12.3314C78.4392 12.3094 78.4266 12.2893 78.4104 12.2724C78.3943 12.2556 78.375 12.2422 78.3536 12.2332C78.3323 12.2242 78.3094 12.2197 78.2863 12.22L78.2844 12.2192ZM87.5064 12.23V11.8896C87.5064 10.8884 87.8816 10.442 88.7213 10.442C89.2232 10.442 89.6262 10.544 90.0777 10.698C90.1042 10.7071 90.1324 10.7096 90.1599 10.7052C90.1875 10.7009 90.2137 10.6899 90.2362 10.6731C90.2588 10.6563 90.2771 10.6342 90.2896 10.6087C90.3021 10.5832 90.3085 10.555 90.3082 10.5264L90.308 8.451C90.3085 8.41223 90.2966 8.37436 90.2741 8.34314C90.2517 8.31192 90.2199 8.28905 90.1836 8.278C89.708 8.1328 89.0986 7.984 88.1846 7.984C85.9645 7.984 84.7885 9.265 84.7885 11.6872V12.2084H83.633C83.5863 12.2085 83.5415 12.2275 83.5084 12.2613C83.4753 12.2951 83.4567 12.341 83.4565 12.3888V14.5164C83.4565 14.6158 83.5365 14.697 83.633 14.697H84.7885V23.1444C84.7885 23.2452 84.8686 23.3252 84.965 23.3252H87.369C87.4674 23.3252 87.5455 23.2452 87.5455 23.1444V14.6974H89.7916L93.2322 23.1442C92.842 24.0308 92.4574 24.2076 91.9334 24.2076C91.51 24.2076 91.0623 24.0784 90.6072 23.8216C90.5641 23.7993 90.5142 23.7945 90.4678 23.8082C90.4448 23.8161 90.4237 23.8288 90.4058 23.8455C90.3879 23.8622 90.3735 23.8825 90.3637 23.9052L89.5482 25.7372C89.5295 25.7788 89.5269 25.8262 89.541 25.8697C89.5552 25.9131 89.585 25.9495 89.6244 25.9712C90.4752 26.443 91.2424 26.6446 92.1918 26.6446C93.9678 26.6446 94.9506 25.7962 95.8145 23.5172L99.9871 12.4764C99.998 12.4491 100.002 12.4195 99.9987 12.3902C99.9955 12.3609 99.9851 12.3329 99.9686 12.3088C99.9529 12.2846 99.9316 12.2648 99.9066 12.2512C99.8816 12.2375 99.8537 12.2303 99.8254 12.2304H97.3211C97.2844 12.2302 97.2485 12.2417 97.2186 12.2634C97.1886 12.2851 97.166 12.3159 97.1539 12.3514L94.5883 19.8532L91.7793 12.3464C91.7667 12.3124 91.7444 12.2831 91.7152 12.2624C91.686 12.2417 91.6513 12.2305 91.6158 12.2304H87.5064V12.23ZM82.1598 12.2192H79.7539C79.7072 12.2194 79.6625 12.2385 79.6295 12.2723C79.5965 12.306 79.5778 12.3518 79.5775 12.3996V23.1444C79.5775 23.2452 79.6574 23.3252 79.7539 23.3252H82.1598C82.2564 23.3252 82.3363 23.2452 82.3363 23.1444V12.4004C82.3364 12.3766 82.3319 12.3531 82.3231 12.3311C82.3142 12.3092 82.3012 12.2892 82.2848 12.2724C82.2684 12.2557 82.2489 12.2424 82.2274 12.2333C82.206 12.2243 82.183 12.2197 82.1598 12.2198V12.2192ZM80.9707 7.3264C80.0176 7.3264 79.2449 8.1164 79.2449 9.092C79.2449 9.32408 79.2895 9.55389 79.3762 9.76831C79.463 9.98273 79.5901 10.1776 79.7503 10.3417C79.9106 10.5058 80.1009 10.6359 80.3102 10.7247C80.5196 10.8135 80.7441 10.8592 80.9707 10.8592C81.9238 10.8592 82.6947 10.0684 82.6947 9.092C82.6946 8.6238 82.513 8.17481 82.1897 7.84372C81.8664 7.51263 81.4279 7.32656 80.9707 7.3264Z"
            fill="#1ED760" />
    </g>
    <defs>
        <clipPath id="clip0_40_11">
            <rect width="100" height="32" fill="white" />
        </clipPath>
    </defs>
</svg>
    